#N canvas 973 89 1032 1023 10;
#X obj 60 262 303_seq;
#X obj 41 50 tgl 15 0 empty empty empty 17 7 0 10 -262144 -1 -1 1 1
;
#X obj 41 109 f 0;
#X obj 77 109 + 1;
#X obj 107 108 % 16;
#X obj 60 488 303_synth;
#X obj 41 80 metro 80;
#X obj 329 255 perk-bassdrum;
#X obj 523 214 sel 8;
#X obj 67 802 catch~ output;
#X obj 60 720 throw~ output;
#X obj 67 824 dac~;
#X obj 524 384 throw~ output;
#X obj 41 131 s beat;
#X obj 329 382 throw~ output;
#X obj 63 236 r beat;
#X obj 329 198 r beat;
#X obj 521 185 r beat;
#X obj 524 241 perk-snare;
#X obj 328 227 sel 0 4 7;
#X obj 330 744 throw~ output;
#X obj 327 452 r beat;
#X obj 329 576 perk-hihat;
#X obj 475 495 % 2;
#X obj 475 517 sel 1;
#X obj 472 455 r beat;
#X obj 273 546 bng 15 250 50 0 empty empty empty 17 7 0 10 -262144
-1 -1;
#X obj 325 480 sel 3 4 6 10 11 12;
#X obj 606 532 303_TB;
#X obj 620 489 r beat;
#X obj 607 794 throw~ output;
#X connect 0 0 5 0;
#X connect 0 1 5 1;
#X connect 1 0 6 0;
#X connect 2 0 3 0;
#X connect 2 0 13 0;
#X connect 3 0 4 0;
#X connect 4 0 2 1;
#X connect 5 0 10 0;
#X connect 6 0 2 0;
#X connect 7 0 14 0;
#X connect 8 0 18 0;
#X connect 9 0 11 0;
#X connect 9 0 11 1;
#X connect 15 0 0 0;
#X connect 16 0 19 0;
#X connect 17 0 8 0;
#X connect 18 0 12 0;
#X connect 19 0 7 0;
#X connect 19 1 7 0;
#X connect 19 2 7 0;
#X connect 21 0 27 0;
#X connect 22 0 20 0;
#X connect 23 0 24 0;
#X connect 25 0 23 0;
#X connect 26 0 22 0;
#X connect 27 0 26 0;
#X connect 27 1 26 0;
#X connect 27 2 26 0;
#X connect 27 3 26 0;
#X connect 27 4 26 0;
#X connect 27 5 26 0;
#X connect 28 0 30 0;
#X connect 29 0 28 0;
