#N canvas 960 23 960 1151 10;
#X obj 44 58 unpackOSC;
#X obj 43 85 print OSCpack;
#X obj 44 33 udpreceive 12002;
#X obj 134 83 route /m0 /m1 /m2 /m3 /m4 /m5;
#X obj 59 212 perk-bassdrum;
#X obj 65 411 catch~ output;
#X obj 65 433 dac~;
#X obj 59 329 throw~ output;
#X obj 135 109 s m0;
#X obj 236 111 s m0;
#X obj 269 112 s m0;
#X obj 302 112 s m0;
#X obj 169 111 s m1;
#X obj 202 110 s m2;
#X obj 57 185 r m0;
#X obj 276 187 r m1;
#X obj 275 213 perk-snare;
#X obj 275 356 throw~ output;
#X obj 477 356 throw~ output;
#X obj 479 94 r m2;
#X obj 477 211 perk-andyHat;
#X obj 539 153 line;
#X obj 600 123 delay 300;
#X msg 600 145 0.3 700;
#X msg 539 124 0.8 300;
#X msg 540 186 3 \$1;
#X msg 593 179 0 \$1;
#X connect 0 0 1 0;
#X connect 0 0 3 0;
#X connect 2 0 0 0;
#X connect 3 0 8 0;
#X connect 3 1 12 0;
#X connect 3 2 13 0;
#X connect 4 0 7 0;
#X connect 5 0 6 0;
#X connect 5 0 6 1;
#X connect 14 0 4 0;
#X connect 15 0 16 0;
#X connect 15 0 16 0;
#X connect 16 0 17 0;
#X connect 19 0 20 0;
#X connect 19 0 24 0;
#X connect 19 0 22 0;
#X connect 20 0 18 0;
#X connect 21 0 25 0;
#X connect 21 0 26 0;
#X connect 22 0 23 0;
#X connect 23 0 21 0;
#X connect 24 0 21 0;
#X connect 25 0 20 1;
