#N canvas 184 112 727 508 10;
#X obj 44 58 unpackOSC;
#X obj 44 112 print OSCpack;
#X obj 44 33 udpreceive 12002;
#X obj 189 279 dac~;
#X obj 161 218 sound;
#X obj 224 220 sound;
#X obj 271 215 sound;
#X obj 334 217 sound;
#X obj 145 83 route /p0 /p1 /p2 /p3 /start /end;
#X connect 0 0 1 0;
#X connect 0 0 8 0;
#X connect 2 0 0 0;
#X connect 4 0 3 0;
#X connect 5 0 3 1;
#X connect 6 0 3 0;
#X connect 7 0 3 1;
#X connect 8 0 4 0;
#X connect 8 1 5 0;
#X connect 8 2 6 0;
#X connect 8 3 7 0;
