#N canvas 0 22 680 566 10;
#X obj 272 353 osc~ 440;
#X obj 257 416 *~;
#X obj 365 157 bng 15 250 50 0 empty empty empty 17 7 0 10 -262144
-1 -1;
#X obj 366 205 mtof;
#X obj 439 193 random 5;
#X obj 439 223 sel 0 1 2 3 4;
#X msg 436 253 0;
#X msg 452 279 4;
#X msg 469 306 7;
#X msg 488 331 11;
#X msg 502 361 12;
#X obj 542 217 * 12;
#X obj 542 239 + 48;
#X obj 442 406 +;
#X obj 542 195 random 2;
#X msg 259 256 1 \$1, f 6;
#X obj 206 225 del;
#X msg 206 254 0 300;
#X obj 258 226 - 300;
#X obj 233 285 line~;
#X obj 217 172 t b f b;
#X obj 183 362 *~;
#X obj 212 120 inlet;
#X obj 237 474 outlet~;
#X obj 271 379 *~ 0.1;
#X connect 0 0 24 0;
#X connect 1 0 23 0;
#X connect 2 0 4 0;
#X connect 2 0 14 0;
#X connect 3 0 0 0;
#X connect 4 0 5 0;
#X connect 5 0 6 0;
#X connect 5 1 7 0;
#X connect 5 2 8 0;
#X connect 5 3 9 0;
#X connect 5 4 10 0;
#X connect 6 0 13 0;
#X connect 7 0 13 0;
#X connect 8 0 13 0;
#X connect 9 0 13 0;
#X connect 10 0 13 0;
#X connect 11 0 12 0;
#X connect 12 0 13 1;
#X connect 13 0 3 0;
#X connect 14 0 11 0;
#X connect 15 0 19 0;
#X connect 16 0 17 0;
#X connect 17 0 19 0;
#X connect 18 0 15 0;
#X connect 18 0 16 1;
#X connect 19 0 21 0;
#X connect 19 0 21 1;
#X connect 20 0 16 0;
#X connect 20 1 18 0;
#X connect 20 2 2 0;
#X connect 21 0 1 1;
#X connect 22 0 20 0;
#X connect 24 0 1 0;
