#N canvas 257 317 608 490 10;
#X obj 153 74 r period;
#X obj 167 326 osc~ 440;
#X obj 152 389 *~;
#X obj 269 92 s period;
#X floatatom 269 69 5 0 0 0 - - -, f 5;
#X obj 130 427 dac~;
#X obj 260 130 bng 15 250 50 0 empty empty empty 17 7 0 10 -262144
-1 -1;
#X obj 261 178 mtof;
#X obj 334 166 random 5;
#X obj 334 196 sel 0 1 2 3 4;
#X msg 331 226 0;
#X msg 347 252 4;
#X msg 364 279 7;
#X msg 383 304 11;
#X msg 397 334 12;
#X obj 437 190 * 12;
#X obj 437 212 + 48;
#X obj 337 379 +;
#X obj 437 168 random 2;
#X obj 167 352 *~ 0.2;
#X msg 126 166 1 \$1, f 6;
#X obj 189 144 del;
#X msg 188 170 0 300;
#X obj 124 107 - 300;
#X obj 156 202 line~;
#X obj 89 228 *~;
#X obj 89 250 *~;
#X obj 89 273 *~;
#X connect 0 0 6 0;
#X connect 0 0 21 0;
#X connect 0 0 23 0;
#X connect 1 0 19 0;
#X connect 2 0 5 0;
#X connect 2 0 5 1;
#X connect 4 0 3 0;
#X connect 6 0 8 0;
#X connect 6 0 18 0;
#X connect 7 0 1 0;
#X connect 8 0 9 0;
#X connect 9 0 10 0;
#X connect 9 1 11 0;
#X connect 9 2 12 0;
#X connect 9 3 13 0;
#X connect 9 4 14 0;
#X connect 10 0 17 0;
#X connect 11 0 17 0;
#X connect 12 0 17 0;
#X connect 13 0 17 0;
#X connect 14 0 17 0;
#X connect 15 0 16 0;
#X connect 16 0 17 1;
#X connect 17 0 7 0;
#X connect 18 0 15 0;
#X connect 19 0 2 0;
#X connect 20 0 24 0;
#X connect 21 0 22 0;
#X connect 22 0 24 0;
#X connect 23 0 20 0;
#X connect 23 0 21 1;
#X connect 24 0 2 1;
#X connect 25 0 26 0;
#X connect 25 0 26 1;
#X connect 26 0 27 0;
#X connect 26 0 27 1;
