#N canvas 869 260 827 567 10;
#X obj 212 67 r period;
#X obj 88 64 s period;
#X floatatom 85 40 5 0 0 0 - - -, f 5;
#X obj 306 125 + 1;
#X obj 271 124 f 1;
#X obj 248 125 bng 15 250 50 0 empty empty empty 17 7 0 10 -262144
-1 -1;
#X obj 211 97 t f b;
#X obj 248 191 pack f f;
#X obj 197 217 print;
#X obj 240 269 dac~;
#X obj 64 178 sound;
#X obj 338 124 % 2;
#X obj 242 217 clone 2 sound;
#X connect 0 0 6 0;
#X connect 0 0 10 0;
#X connect 2 0 1 0;
#X connect 3 0 11 0;
#X connect 4 0 3 0;
#X connect 4 0 7 0;
#X connect 5 0 4 0;
#X connect 6 0 7 1;
#X connect 6 1 5 0;
#X connect 7 0 8 0;
#X connect 7 0 12 0;
#X connect 11 0 4 1;
#X connect 12 0 9 0;
#X connect 12 0 9 1;
