#N canvas 538 210 827 567 10;
#X obj 212 67 r period;
#X obj 88 64 s period;
#X floatatom 87 40 5 0 0 0 - - -, f 5;
#X obj 243 314 dac~;
#N canvas 0 22 722 589 sound 0;
#X obj 272 353 osc~ 440;
#X obj 257 416 *~;
#X obj 365 157 bng 15 250 50 0 empty empty empty 17 7 0 10 -262144
-1 -1;
#X obj 366 205 mtof;
#X obj 439 193 random 5;
#X obj 439 223 sel 0 1 2 3 4;
#X msg 436 253 0;
#X msg 452 279 4;
#X msg 469 306 7;
#X msg 488 331 11;
#X msg 502 361 12;
#X obj 542 217 * 12;
#X obj 542 239 + 48;
#X obj 442 406 +;
#X obj 542 195 random 2;
#X msg 259 256 1 \$1, f 6;
#X obj 206 225 del;
#X msg 206 254 0 300;
#X obj 258 226 - 300;
#X obj 233 285 line~;
#X obj 217 172 t b f b;
#X obj 183 362 *~;
#X obj 212 120 inlet;
#X obj 264 477 outlet~;
#X obj 271 379 *~ 0.1;
#X connect 0 0 24 0;
#X connect 1 0 23 0;
#X connect 2 0 4 0;
#X connect 2 0 14 0;
#X connect 3 0 0 0;
#X connect 4 0 5 0;
#X connect 5 0 6 0;
#X connect 5 1 7 0;
#X connect 5 2 8 0;
#X connect 5 3 9 0;
#X connect 5 4 10 0;
#X connect 6 0 13 0;
#X connect 7 0 13 0;
#X connect 8 0 13 0;
#X connect 9 0 13 0;
#X connect 10 0 13 0;
#X connect 11 0 12 0;
#X connect 12 0 13 1;
#X connect 13 0 3 0;
#X connect 14 0 11 0;
#X connect 15 0 19 0;
#X connect 16 0 17 0;
#X connect 17 0 19 0;
#X connect 18 0 15 0;
#X connect 18 0 16 1;
#X connect 19 0 21 0;
#X connect 19 0 21 1;
#X connect 20 0 16 0;
#X connect 20 1 18 0;
#X connect 20 2 2 0;
#X connect 21 0 1 1;
#X connect 22 0 20 0;
#X connect 24 0 1 0;
#X restore 208 234 pd sound;
#X obj 344 140 sel 0 1 2 3 4;
#X obj 375 114 + 1;
#X obj 407 113 % 5;
#X obj 208 206 f;
#N canvas 0 22 722 589 sound 0;
#X obj 272 353 osc~ 440;
#X obj 257 416 *~;
#X obj 365 157 bng 15 250 50 0 empty empty empty 17 7 0 10 -262144
-1 -1;
#X obj 366 205 mtof;
#X obj 439 193 random 5;
#X obj 439 223 sel 0 1 2 3 4;
#X msg 436 253 0;
#X msg 452 279 4;
#X msg 469 306 7;
#X msg 488 331 11;
#X msg 502 361 12;
#X obj 542 217 * 12;
#X obj 542 239 + 48;
#X obj 442 406 +;
#X obj 542 195 random 2;
#X msg 259 256 1 \$1, f 6;
#X obj 206 225 del;
#X msg 206 254 0 300;
#X obj 258 226 - 300;
#X obj 233 285 line~;
#X obj 217 172 t b f b;
#X obj 183 362 *~;
#X obj 212 120 inlet;
#X obj 264 477 outlet~;
#X obj 271 379 *~ 0.1;
#X connect 0 0 24 0;
#X connect 1 0 23 0;
#X connect 2 0 4 0;
#X connect 2 0 14 0;
#X connect 3 0 0 0;
#X connect 4 0 5 0;
#X connect 5 0 6 0;
#X connect 5 1 7 0;
#X connect 5 2 8 0;
#X connect 5 3 9 0;
#X connect 5 4 10 0;
#X connect 6 0 13 0;
#X connect 7 0 13 0;
#X connect 8 0 13 0;
#X connect 9 0 13 0;
#X connect 10 0 13 0;
#X connect 11 0 12 0;
#X connect 12 0 13 1;
#X connect 13 0 3 0;
#X connect 14 0 11 0;
#X connect 15 0 19 0;
#X connect 16 0 17 0;
#X connect 17 0 19 0;
#X connect 18 0 15 0;
#X connect 18 0 16 1;
#X connect 19 0 21 0;
#X connect 19 0 21 1;
#X connect 20 0 16 0;
#X connect 20 1 18 0;
#X connect 20 2 2 0;
#X connect 21 0 1 1;
#X connect 22 0 20 0;
#X connect 24 0 1 0;
#X restore 271 234 pd sound;
#X obj 271 206 f;
#N canvas 0 22 722 589 sound 0;
#X obj 272 353 osc~ 440;
#X obj 257 416 *~;
#X obj 365 157 bng 15 250 50 0 empty empty empty 17 7 0 10 -262144
-1 -1;
#X obj 366 205 mtof;
#X obj 439 193 random 5;
#X obj 439 223 sel 0 1 2 3 4;
#X msg 436 253 0;
#X msg 452 279 4;
#X msg 469 306 7;
#X msg 488 331 11;
#X msg 502 361 12;
#X obj 542 217 * 12;
#X obj 542 239 + 48;
#X obj 442 406 +;
#X obj 542 195 random 2;
#X msg 259 256 1 \$1, f 6;
#X obj 206 225 del;
#X msg 206 254 0 300;
#X obj 258 226 - 300;
#X obj 233 285 line~;
#X obj 217 172 t b f b;
#X obj 183 362 *~;
#X obj 212 120 inlet;
#X obj 264 477 outlet~;
#X obj 271 379 *~ 0.1;
#X connect 0 0 24 0;
#X connect 1 0 23 0;
#X connect 2 0 4 0;
#X connect 2 0 14 0;
#X connect 3 0 0 0;
#X connect 4 0 5 0;
#X connect 5 0 6 0;
#X connect 5 1 7 0;
#X connect 5 2 8 0;
#X connect 5 3 9 0;
#X connect 5 4 10 0;
#X connect 6 0 13 0;
#X connect 7 0 13 0;
#X connect 8 0 13 0;
#X connect 9 0 13 0;
#X connect 10 0 13 0;
#X connect 11 0 12 0;
#X connect 12 0 13 1;
#X connect 13 0 3 0;
#X connect 14 0 11 0;
#X connect 15 0 19 0;
#X connect 16 0 17 0;
#X connect 17 0 19 0;
#X connect 18 0 15 0;
#X connect 18 0 16 1;
#X connect 19 0 21 0;
#X connect 19 0 21 1;
#X connect 20 0 16 0;
#X connect 20 1 18 0;
#X connect 20 2 2 0;
#X connect 21 0 1 1;
#X connect 22 0 20 0;
#X connect 24 0 1 0;
#X restore 336 232 pd sound;
#X obj 336 204 f;
#N canvas 471 271 722 589 sound 0;
#X obj 272 353 osc~ 440;
#X obj 257 416 *~;
#X obj 365 157 bng 15 250 50 0 empty empty empty 17 7 0 10 -262144
-1 -1;
#X obj 366 205 mtof;
#X obj 439 193 random 5;
#X obj 439 223 sel 0 1 2 3 4;
#X msg 436 253 0;
#X msg 452 279 4;
#X msg 469 306 7;
#X msg 488 331 11;
#X msg 502 361 12;
#X obj 542 217 * 12;
#X obj 542 239 + 48;
#X obj 442 406 +;
#X obj 542 195 random 2;
#X msg 259 256 1 \$1, f 6;
#X obj 206 225 del;
#X msg 206 254 0 300;
#X obj 258 226 - 300;
#X obj 233 285 line~;
#X obj 217 172 t b f b;
#X obj 183 362 *~;
#X obj 212 120 inlet;
#X obj 264 477 outlet~;
#X obj 271 379 *~ 0.1;
#X connect 0 0 24 0;
#X connect 1 0 23 0;
#X connect 2 0 4 0;
#X connect 2 0 14 0;
#X connect 3 0 0 0;
#X connect 4 0 5 0;
#X connect 5 0 6 0;
#X connect 5 1 7 0;
#X connect 5 2 8 0;
#X connect 5 3 9 0;
#X connect 5 4 10 0;
#X connect 6 0 13 0;
#X connect 7 0 13 0;
#X connect 8 0 13 0;
#X connect 9 0 13 0;
#X connect 10 0 13 0;
#X connect 11 0 12 0;
#X connect 12 0 13 1;
#X connect 13 0 3 0;
#X connect 14 0 11 0;
#X connect 15 0 19 0;
#X connect 16 0 17 0;
#X connect 17 0 19 0;
#X connect 18 0 15 0;
#X connect 18 0 16 1;
#X connect 19 0 21 0;
#X connect 19 0 21 1;
#X connect 20 0 16 0;
#X connect 20 1 18 0;
#X connect 20 2 2 0;
#X connect 21 0 1 1;
#X connect 22 0 20 0;
#X connect 24 0 1 0;
#X restore 401 232 pd sound;
#X obj 401 204 f;
#N canvas 0 22 722 589 sound 0;
#X obj 272 353 osc~ 440;
#X obj 257 416 *~;
#X obj 365 157 bng 15 250 50 0 empty empty empty 17 7 0 10 -262144
-1 -1;
#X obj 366 205 mtof;
#X obj 439 193 random 5;
#X obj 439 223 sel 0 1 2 3 4;
#X msg 436 253 0;
#X msg 452 279 4;
#X msg 469 306 7;
#X msg 488 331 11;
#X msg 502 361 12;
#X obj 542 217 * 12;
#X obj 542 239 + 48;
#X obj 442 406 +;
#X obj 542 195 random 2;
#X msg 259 256 1 \$1, f 6;
#X obj 206 225 del;
#X msg 206 254 0 300;
#X obj 258 226 - 300;
#X obj 233 285 line~;
#X obj 217 172 t b f b;
#X obj 183 362 *~;
#X obj 212 120 inlet;
#X obj 264 477 outlet~;
#X obj 271 379 *~ 0.1;
#X connect 0 0 24 0;
#X connect 1 0 23 0;
#X connect 2 0 4 0;
#X connect 2 0 14 0;
#X connect 3 0 0 0;
#X connect 4 0 5 0;
#X connect 5 0 6 0;
#X connect 5 1 7 0;
#X connect 5 2 8 0;
#X connect 5 3 9 0;
#X connect 5 4 10 0;
#X connect 6 0 13 0;
#X connect 7 0 13 0;
#X connect 8 0 13 0;
#X connect 9 0 13 0;
#X connect 10 0 13 0;
#X connect 11 0 12 0;
#X connect 12 0 13 1;
#X connect 13 0 3 0;
#X connect 14 0 11 0;
#X connect 15 0 19 0;
#X connect 16 0 17 0;
#X connect 17 0 19 0;
#X connect 18 0 15 0;
#X connect 18 0 16 1;
#X connect 19 0 21 0;
#X connect 19 0 21 1;
#X connect 20 0 16 0;
#X connect 20 1 18 0;
#X connect 20 2 2 0;
#X connect 21 0 1 1;
#X connect 22 0 20 0;
#X connect 24 0 1 0;
#X restore 468 233 pd sound;
#X obj 468 205 f;
#X obj 343 113 f 1;
#X obj 291 95 bng 15 250 50 0 empty empty empty 17 7 0 10 -262144 -1
-1;
#X obj 169 376 clone 50 sound;
#X connect 0 0 8 1;
#X connect 0 0 10 1;
#X connect 0 0 12 1;
#X connect 0 0 14 1;
#X connect 0 0 16 1;
#X connect 0 0 18 0;
#X connect 2 0 1 0;
#X connect 4 0 3 0;
#X connect 5 0 8 0;
#X connect 5 1 10 0;
#X connect 5 2 12 0;
#X connect 5 3 14 0;
#X connect 5 4 16 0;
#X connect 6 0 7 0;
#X connect 7 0 17 1;
#X connect 8 0 4 0;
#X connect 9 0 3 1;
#X connect 10 0 9 0;
#X connect 11 0 3 0;
#X connect 12 0 11 0;
#X connect 13 0 3 1;
#X connect 14 0 13 0;
#X connect 15 0 3 0;
#X connect 16 0 15 0;
#X connect 17 0 6 0;
#X connect 17 0 5 0;
#X connect 18 0 17 0;
