#N canvas 485 257 767 473 10;
#X msg 113 190 \$1 250;
#X obj 113 216 line~;
#X obj 39 263 osc~ 440;
#X obj 38 422 dac~;
#X obj 39 343 *~;
#X obj 39 293 *~ 0.3;
#X obj 114 135 r y;
#X obj 52 134 r x;
#X obj 50 174 * 30;
#X obj 50 196 + 50;
#X obj 49 219 mtof;
#X obj 168 135 r start;
#X obj 234 136 r end;
#X obj 173 264 f 0;
#X obj 173 234 t b f;
#X obj 39 375 *~;
#X obj 171 210 line;
#X msg 171 188 \$1 400;
#X connect 0 0 1 0;
#X connect 1 0 4 1;
#X connect 2 0 5 0;
#X connect 4 0 15 0;
#X connect 5 0 4 0;
#X connect 6 0 0 0;
#X connect 7 0 8 0;
#X connect 8 0 9 0;
#X connect 9 0 10 0;
#X connect 10 0 2 0;
#X connect 11 0 17 0;
#X connect 12 0 17 0;
#X connect 13 0 15 1;
#X connect 14 0 13 0;
#X connect 14 1 13 1;
#X connect 15 0 3 0;
#X connect 15 0 3 1;
#X connect 16 0 14 0;
#X connect 17 0 16 0;
