#N canvas 686 389 767 473 10;
#X msg 184 195 \$1 250;
#X obj 184 221 line~;
#X obj 39 263 osc~ 440;
#X obj 38 354 dac~;
#X obj 39 320 *~;
#X obj 39 293 *~ 0.3;
#X obj 255 141 loadbang;
#X obj 255 233 print;
#X obj 255 210 realtime;
#X obj 255 163 metro 1000;
#X obj 255 186 t b b;
#X obj 185 140 r y;
#X obj 42 138 r x;
#X obj 50 174 * 30;
#X obj 50 196 + 50;
#X obj 49 219 mtof;
#X connect 0 0 1 0;
#X connect 1 0 4 1;
#X connect 2 0 5 0;
#X connect 4 0 3 0;
#X connect 4 0 3 1;
#X connect 5 0 4 0;
#X connect 6 0 9 0;
#X connect 8 0 7 0;
#X connect 9 0 10 0;
#X connect 10 0 8 0;
#X connect 10 1 8 1;
#X connect 11 0 0 0;
#X connect 12 0 13 0;
#X connect 13 0 14 0;
#X connect 14 0 15 0;
#X connect 15 0 2 0;
