#N canvas 185 232 767 473 10;
#X obj 39 239 mtof;
#X obj 41 195 expr int(($f1)*30+50);
#X msg 184 195 \$1 250;
#X obj 184 221 line~;
#X obj 39 263 osc~ 440;
#X obj 44 390 dac~;
#X obj 39 320 *~;
#X obj 39 293 *~ 0.3;
#X obj 53 347 spigot~;
#X msg 92 311 1;
#X msg 130 310 0;
#X obj 305 141 r start;
#X obj 312 198 r end;
#X obj 42 138 r pitch;
#X obj 185 140 r volume;
#X connect 0 0 4 0;
#X connect 1 0 0 0;
#X connect 2 0 3 0;
#X connect 3 0 6 1;
#X connect 4 0 7 0;
#X connect 6 0 8 0;
#X connect 7 0 6 0;
#X connect 8 1 5 0;
#X connect 8 1 5 1;
#X connect 9 0 8 1;
#X connect 10 0 8 1;
#X connect 11 0 9 0;
#X connect 12 0 10 0;
#X connect 13 0 1 0;
#X connect 14 0 2 0;
