#N canvas 144 511 322 421 10;
#X obj 44 58 unpackOSC;
#X obj 44 112 print OSCpack;
#X obj 44 33 udpreceive 12002;
#X obj 218 279 dac~;
#X obj 171 206 sound;
#X obj 145 83 route /circle;
#X obj 148 138 unpack f f;
#X floatatom 150 166 5 0 0 0 - - -, f 5;
#X floatatom 204 168 5 0 0 0 - - -, f 5;
#X obj 83 280 k_vol~;
#X connect 0 0 1 0;
#X connect 0 0 5 0;
#X connect 2 0 0 0;
#X connect 4 0 3 0;
#X connect 4 0 3 1;
#X connect 4 0 9 0;
#X connect 5 0 6 0;
#X connect 6 0 7 0;
#X connect 6 1 8 0;
#X connect 7 0 4 0;
#X connect 8 0 4 1;
