#N canvas 648 325 662 489 10;
#X obj 208 44 inlet;
#X obj 167 180 mtof;
#X obj 166 210 osc~ 440;
#X obj 211 101 t f b;
#X obj 193 303 *~;
#X obj 298 256 line;
#X msg 300 226 1 \, 0 200;
#X obj 193 364 lop~ 500;
#X obj 232 209 mtof;
#X obj 231 239 osc~ 440;
#X obj 194 273 *~;
#X obj 193 335 *~ 0;
#X obj 195 408 outlet~;
#X obj 291 45 inlet;
#X obj 234 175 k_range 0 800 10 100;
#X obj 168 146 k_range 0 800 50 80;
#X floatatom 328 120 5 0 0 0 - - -, f 5;
#X floatatom 386 123 5 0 0 0 - - -, f 5;
#X floatatom 301 291 5 0 0 0 - - -, f 5;
#X connect 0 0 3 0;
#X connect 0 0 16 0;
#X connect 1 0 2 0;
#X connect 2 0 10 0;
#X connect 3 0 15 0;
#X connect 3 1 6 0;
#X connect 4 0 11 0;
#X connect 5 0 4 1;
#X connect 5 0 18 0;
#X connect 6 0 5 0;
#X connect 7 0 12 0;
#X connect 8 0 9 0;
#X connect 9 0 10 1;
#X connect 10 0 4 0;
#X connect 11 0 7 0;
#X connect 13 0 14 0;
#X connect 13 0 17 0;
#X connect 14 0 8 0;
#X connect 15 0 1 0;
