#N canvas 79 275 662 489 10;
#X obj 208 44 inlet;
#X obj 291 45 inlet;
#X obj 167 180 mtof;
#X obj 169 146 k_range 0 255 50 80;
#X obj 166 210 osc~ 440;
#X obj 211 101 t f b;
#X obj 193 303 *~;
#X obj 298 256 line;
#X msg 300 226 1 \, 0 200;
#X obj 193 364 lop~ 500;
#X obj 232 209 mtof;
#X obj 231 239 osc~ 440;
#X obj 194 273 *~;
#X obj 234 175 k_range 0 255 10 100;
#X obj 193 335 *~ 0;
#X floatatom 379 160 5 0 0 0 - - -, f 5;
#X obj 278 100 k_range 0 255 0 2;
#X obj 195 408 outlet~;
#X connect 0 0 5 0;
#X connect 1 0 16 0;
#X connect 2 0 4 0;
#X connect 3 0 2 0;
#X connect 4 0 12 0;
#X connect 5 0 3 0;
#X connect 5 0 13 0;
#X connect 5 1 8 0;
#X connect 6 0 14 0;
#X connect 7 0 6 1;
#X connect 8 0 7 0;
#X connect 9 0 17 0;
#X connect 10 0 11 0;
#X connect 11 0 12 1;
#X connect 12 0 6 0;
#X connect 13 0 10 0;
#X connect 14 0 9 0;
#X connect 16 0 14 1;
#X connect 16 0 15 0;
