#N canvas 185 232 540 440 10;
#X obj 44 58 unpackOSC;
#X obj 44 112 print OSCpack;
#X obj 44 33 udpreceive 12001;
#X obj 39 239 mtof;
#X obj 41 195 expr int(($f1)*30+50);
#X obj 135 112 unpack f f;
#X floatatom 135 157 5 0 0 0 - - -, f 5;
#X floatatom 190 161 5 0 0 0 - - -, f 5;
#X text 142 140 x:pitch;
#X text 198 140 y:volume;
#X msg 184 195 \$1 250;
#X obj 184 221 line~;
#X obj 39 263 osc~ 440;
#X obj 44 390 dac~;
#X obj 39 320 *~;
#X obj 39 293 *~ 0.3;
#X obj 53 347 spigot~;
#X obj 63 83 route /point /start /end;
#X msg 92 311 1;
#X msg 130 310 0;
#X connect 0 0 1 0;
#X connect 0 0 17 0;
#X connect 2 0 0 0;
#X connect 3 0 12 0;
#X connect 4 0 3 0;
#X connect 5 0 6 0;
#X connect 5 1 7 0;
#X connect 6 0 4 0;
#X connect 7 0 10 0;
#X connect 10 0 11 0;
#X connect 11 0 14 1;
#X connect 12 0 15 0;
#X connect 14 0 16 0;
#X connect 15 0 14 0;
#X connect 16 1 13 0;
#X connect 16 1 13 1;
#X connect 17 0 5 0;
#X connect 17 1 18 0;
#X connect 17 2 19 0;
#X connect 18 0 16 1;
#X connect 19 0 16 1;
